<mxfile host="65bd71144e">
    <diagram name="Dual" id="cQeILAHhkQNOI9hmglqc">
        <mxGraphModel dx="803" dy="737" grid="1" gridSize="10" guides="1" tooltips="1" connect="1" arrows="1" fold="1" page="1" pageScale="1" pageWidth="827" pageHeight="1169" math="0" shadow="0">
            <root>
                <mxCell id="0"/>
                <mxCell id="1" parent="0"/>
                <mxCell id="MOzzCKnlqrLyNqiJ5SVD-1" value="" style="rounded=0;whiteSpace=wrap;html=1;" parent="1" vertex="1">
                    <mxGeometry x="40" y="40" width="280" height="480" as="geometry"/>
                </mxCell>
                <mxCell id="MOzzCKnlqrLyNqiJ5SVD-2" value="" style="rounded=0;whiteSpace=wrap;html=1;rotation=-30;fillColor=#647687;fontColor=#ffffff;strokeColor=#314354;" parent="1" vertex="1">
                    <mxGeometry x="80" y="80" width="40" height="90" as="geometry"/>
                </mxCell>
                <mxCell id="MOzzCKnlqrLyNqiJ5SVD-3" value="" style="rounded=0;whiteSpace=wrap;html=1;rotation=-30;fillColor=#647687;fontColor=#ffffff;strokeColor=#314354;" parent="1" vertex="1">
                    <mxGeometry x="240" y="80" width="40" height="90" as="geometry"/>
                </mxCell>
                <mxCell id="MOzzCKnlqrLyNqiJ5SVD-4" value="" style="rounded=0;whiteSpace=wrap;html=1;rotation=30;fillColor=#647687;fontColor=#ffffff;strokeColor=#314354;" parent="1" vertex="1">
                    <mxGeometry x="80" y="380" width="40" height="90" as="geometry"/>
                </mxCell>
                <mxCell id="MOzzCKnlqrLyNqiJ5SVD-5" value="" style="rounded=0;whiteSpace=wrap;html=1;rotation=30;fillColor=#647687;fontColor=#ffffff;strokeColor=#314354;" parent="1" vertex="1">
                    <mxGeometry x="240" y="390" width="40" height="90" as="geometry"/>
                </mxCell>
                <mxCell id="MOzzCKnlqrLyNqiJ5SVD-8" value="" style="endArrow=none;dashed=1;html=1;dashPattern=1 3;strokeWidth=2;rounded=0;entryX=1;entryY=0.5;entryDx=0;entryDy=0;" parent="1" target="MOzzCKnlqrLyNqiJ5SVD-1" edge="1">
                    <mxGeometry width="50" height="50" relative="1" as="geometry">
                        <mxPoint x="40" y="280" as="sourcePoint"/>
                        <mxPoint x="90" y="230" as="targetPoint"/>
                    </mxGeometry>
                </mxCell>
                <mxCell id="MOzzCKnlqrLyNqiJ5SVD-10" value="" style="endArrow=none;dashed=1;html=1;rounded=0;exitX=0.5;exitY=1;exitDx=0;exitDy=0;" parent="1" source="MOzzCKnlqrLyNqiJ5SVD-1" edge="1">
                    <mxGeometry width="50" height="50" relative="1" as="geometry">
                        <mxPoint x="130" y="90" as="sourcePoint"/>
                        <mxPoint x="180" y="40" as="targetPoint"/>
                    </mxGeometry>
                </mxCell>
                <mxCell id="MOzzCKnlqrLyNqiJ5SVD-11" value="Front Left" style="text;html=1;strokeColor=none;fillColor=none;align=center;verticalAlign=middle;whiteSpace=wrap;rounded=0;" parent="1" vertex="1">
                    <mxGeometry x="60" y="50" width="60" height="30" as="geometry"/>
                </mxCell>
                <mxCell id="MOzzCKnlqrLyNqiJ5SVD-12" value="Front Right" style="text;html=1;strokeColor=none;fillColor=none;align=center;verticalAlign=middle;whiteSpace=wrap;rounded=0;" parent="1" vertex="1">
                    <mxGeometry x="214" y="50" width="80" height="30" as="geometry"/>
                </mxCell>
                <mxCell id="MOzzCKnlqrLyNqiJ5SVD-13" value="Rear Right" style="text;html=1;strokeColor=none;fillColor=none;align=center;verticalAlign=middle;whiteSpace=wrap;rounded=0;" parent="1" vertex="1">
                    <mxGeometry x="214" y="490" width="80" height="30" as="geometry"/>
                </mxCell>
                <mxCell id="MOzzCKnlqrLyNqiJ5SVD-14" value="Rear Left" style="text;html=1;strokeColor=none;fillColor=none;align=center;verticalAlign=middle;whiteSpace=wrap;rounded=0;" parent="1" vertex="1">
                    <mxGeometry x="60" y="490" width="60" height="30" as="geometry"/>
                </mxCell>
                <mxCell id="MOzzCKnlqrLyNqiJ5SVD-15" value="&lt;h1&gt;주요 특징&lt;/h1&gt;&lt;li class=&quot;whitespace-normal break-words&quot;&gt;전륜(앞바퀴)과 후륜(뒷바퀴)이 서로 반대 방향으로 조향&lt;br&gt;&lt;br&gt;&lt;/li&gt;&lt;li class=&quot;whitespace-normal break-words&quot;&gt;좌우 바퀴는 같은 각도로 조향&lt;br&gt;&lt;br&gt;&lt;/li&gt;&lt;li class=&quot;whitespace-normal break-words&quot;&gt;차량의 회전 중심(ICR)이 차량 중심에 가깝게 위치&lt;br&gt;&lt;br&gt;&lt;/li&gt;&lt;li class=&quot;whitespace-normal break-words&quot;&gt;일반 Ackermann에 비해 더 작은 회전 반경을 가능하게 함&lt;br&gt;&lt;br&gt;&lt;br&gt;&lt;br&gt;&lt;/li&gt;&lt;li class=&quot;whitespace-normal break-words&quot;&gt;매우 작은 공간에서도 회전이 가능&lt;br&gt;&lt;br&gt;&lt;/li&gt;&lt;br/&gt;&lt;li class=&quot;whitespace-normal break-words&quot;&gt;측면 이동(Crab steering)과 제자리 회전이 가능&lt;br&gt;&lt;br&gt;&lt;/li&gt;&lt;br/&gt;&lt;li class=&quot;whitespace-normal break-words&quot;&gt;일반 Ackermann 조향보다 더 높은 기동성&lt;/li&gt;" style="text;html=1;strokeColor=none;fillColor=none;spacing=5;spacingTop=-20;whiteSpace=wrap;overflow=hidden;rounded=0;" parent="1" vertex="1">
                    <mxGeometry x="400" y="40" width="390" height="360" as="geometry"/>
                </mxCell>
            </root>
        </mxGraphModel>
    </diagram>
</mxfile>